<svg width="40" height="40" viewBox="0 0 40 40" fill="none" xmlns="http://www.w3.org/2000/svg">
<path d="M1 20C1 11.044 1 6.564 3.782 3.782C6.564 1 11.042 1 20 1C28.956 1 33.436 1 36.218 3.782C39 6.564 39 11.042 39 20C39 28.956 39 33.436 36.218 36.218C33.436 39 28.958 39 20 39C11.044 39 6.564 39 3.782 36.218C1 33.436 1 28.958 1 20Z" stroke="#838383" stroke-width="1.5" stroke-linecap="round" stroke-linejoin="round"/>
<path d="M12.83 16C12.6467 15.4815 12.3244 15.0234 11.8983 14.6757C11.4723 14.328 10.9588 14.1041 10.4141 14.0285C9.86943 13.9529 9.31442 14.0284 8.80975 14.2469C8.30508 14.4654 7.87017 14.8184 7.55255 15.2673C7.23493 15.7162 7.04682 16.2438 7.00878 16.7925C6.97073 17.3411 7.08421 17.8896 7.33682 18.3781C7.58943 18.8665 7.97145 19.2762 8.44113 19.5622C8.91082 19.8483 9.45009 19.9997 10 20C10.5499 20.0003 11.0892 20.1517 11.5589 20.4378C12.0286 20.7238 12.4106 21.1335 12.6632 21.6219C12.9158 22.1104 13.0293 22.6589 12.9913 23.2075C12.9532 23.7562 12.7651 24.2838 12.4475 24.7327C12.1299 25.1816 11.695 25.5346 11.1903 25.7531C10.6856 25.9716 10.1306 26.0471 9.5859 25.9715C9.04119 25.8959 8.52775 25.672 8.10169 25.3243C7.67562 24.9766 7.35332 24.5185 7.17001 24M21 26C20.2044 26 19.4413 25.6839 18.8787 25.1213C18.3161 24.5587 18 23.7957 18 23V17C18 16.2044 18.3161 15.4413 18.8787 14.8787C19.4413 14.3161 20.2044 14 21 14C21.7957 14 22.5587 14.3161 23.1213 14.8787C23.6839 15.4413 24 16.2044 24 17V23C24 23.7957 23.6839 24.5587 23.1213 25.1213C22.5587 25.6839 21.7957 26 21 26ZM21 26L24 29M29 14V22C29 23.886 29 24.828 29.586 25.414C30.172 26 31.114 26 33 26" stroke="#838383" stroke-width="1.5" stroke-linecap="round" stroke-linejoin="round"/>
</svg>
