<svg width="48" height="48" viewBox="0 0 48 48" fill="none" xmlns="http://www.w3.org/2000/svg">
<path d="M20.1 16.2L20.2 18.5L18.6 21.5L16.1 26.4L15.6 30.5L17.4 36.3L21.5 38.6H27.7L33.5 34.2L36.1 27.3L30.1 20L28.4 15.9L20.1 16.2Z" fill="#ECEFF1"/>
<path d="M34.3 21.9001C32.7 19.6001 31.4 18.2001 30.7 15.3001C30 12.4001 30.9 13.2001 30.3 10.7001C30 9.40005 29.5 8.50005 29 7.80005C28.4 7.10005 27.7 6.70005 27.3 6.60005C26.4 6.10005 24.3 5.30005 21.7 6.70005C19 8.10005 19.3 11.1001 19.8 17.2001C19.8 17.6001 19.7 18.1001 19.5 18.5001C19.1 19.4001 18.4 20.2001 17.8 20.9001C17.1 21.9001 16.4 22.9001 15.9 24.0001C14.7 26.3001 13.6 29.2001 13.9 30.3001C14.4 30.2001 20.7 39.8 20.7 40C21.1 39.9 22.8 39.9001 24.3 39.9001C26.4 39.8001 27.6 39.7 29.3 40.1C29.3 39.8 29.2 39.5001 29.2 39.2001C29.2 38.6001 29.3 38.1001 29.4 37.4001C29.5 36.9001 29.6 36.4001 29.7 35.8001C28.7 36.7001 26.9 37.7 25.2 38C23.7 38.3 21.2 37.8001 20 36.3001C20.1 36.3001 20.3 36.3001 20.4 36.2001C20.7 36.1001 21 36.0001 21.1 35.8001C21.4 35.3001 21.2 34.8001 21 34.5001C20.8 34.2001 19.3 33.1001 18.6 32.5001C17.9 31.9001 17.5 31.6001 17.1 31.2001L16.3 30.4001C16.1 30.2001 16 30.0001 15.9 29.9001C15.7 29.4001 15.6 28.8001 15.7 28.0001C15.8 26.9001 16.2 26.0001 16.7 25.0001C16.9 24.6001 17.4 23.8001 17.4 23.8001C17.4 23.8001 15.7 28.0001 16.6 29.3001C16.6 29.3001 16.7 28.0001 17.1 26.7001C17.4 25.8001 17.9 24.5001 18.5 23.8001C19.1 23.1001 20.6 20.5001 20.7 18.9001C20.7 18.2001 20.8 17.5001 20.8 17.0001C20.4 16.6001 27.4 15.6001 27.8 16.7001C27.9 17.1001 29.3 20.7001 30.1 22.6001C30.5 23.5001 31 24.3001 31.3 25.3001C31.6 26.4001 31.8 27.9001 31.8 29.4001C31.8 29.7001 31.8 30.2001 31.7 30.7001C31.9 30.7001 35.8 26.5001 31.2 23.0001C31.2 23.0001 34 24.3001 34.1 26.9001C34.2 29.0001 33.3 30.7001 33.1 31.0001C33.2 31.0001 35.2 31.9001 35.3 31.9001C35.7 31.9001 36.5 31.6001 36.5 31.6001C36.6 31.3001 36.9 30.5001 36.9 30.2001C37.6 27.9001 35.9 24.2001 34.3 21.9001Z" fill="#263238"/>
<path d="M21.6 15.3C22.318 15.3 22.9 14.4046 22.9 13.3C22.9 12.1955 22.318 11.3 21.6 11.3C20.8821 11.3 20.3 12.1955 20.3 13.3C20.3 14.4046 20.8821 15.3 21.6 15.3Z" fill="#ECEFF1"/>
<path d="M26.1 15.5C27.0389 15.5 27.8 14.4703 27.8 13.2C27.8 11.9298 27.0389 10.9 26.1 10.9C25.1611 10.9 24.4 11.9298 24.4 13.2C24.4 14.4703 25.1611 15.5 26.1 15.5Z" fill="#ECEFF1"/>
<path d="M22.327 13.4366C22.2439 12.7791 21.8656 12.2854 21.482 12.3339C21.0985 12.3824 20.8549 12.9547 20.938 13.6122C21.0211 14.2697 21.3994 14.7634 21.783 14.715C22.1665 14.6665 22.4101 14.0942 22.327 13.4366Z" fill="#212121"/>
<path d="M26 14.8999C26.5523 14.8999 27 14.3179 27 13.5999C27 12.882 26.5523 12.2999 26 12.2999C25.4477 12.2999 25 12.882 25 13.5999C25 14.3179 25.4477 14.8999 26 14.8999Z" fill="#212121"/>
<path d="M39.3 35.6C38.9 35.4 38.2 35.1 37.6 34.2C37.3 33.7 37.4 32.3 36.9 31.7C36.6 31.3 36.2 31.5 36.1 31.5C35.2 31.7 33.1 33.1 31.7 31.5C31.5 31.3 31.2 31 30.7 31C30.2 31 30 31.2 29.8 31.6C29.6 32 29.6 32.3 29.6 33.3C29.6 34.1 29.6 35 29.5 35.7C29.3 37.4 29 38.4 29 39.4C29 40.5 29.3 41.2 29.7 41.5C30 41.8 30.5 42 31.6 42C32.7 42 33.4 41.6 34.1 40.9C34.6 40.4 35 40.2 36.4 39.2C37.5 38.5 39.2 37.6 39.5 37.3C39.7 37.1 40 37 40 36.4C40 35.9 39.6 35.7 39.3 35.6ZM19.2 35.9C18.2 34.3 18.1 34 17.4 33C16.8 32 15.5 30.1 14.7 30.1C14.1 30.1 13.8 30.4 13.4 30.8C13 31.2 12.6 32.1 11.9 32.6C11.3 33.1 9.59999 33 9.19999 33.6C8.79999 34.2 9.59999 35.1 9.59999 36.6C9.59999 37.2 9.09999 37.6 8.99999 38C8.89999 38.5 8.79999 38.8 8.99999 39.2C9.39999 39.8 9.89999 40 13.3 40.7C15.1 41.1 16.8 42.1 17.9 42.2C19 42.3 20.9 42.2 20.9 39.5C21 37.9 20.1 37.5 19.2 35.9ZM21.1 17.8C20.5 17.4 20 17 20 16.4C20 15.8 20.4 15.6 21 15.1C21.1 15 22.2 14 23.3 14C24.4 14 25.7 14.7 26.2 14.9C27.1 15.1 28 15.3 27.9 16C27.8 17 27.7 17.2 26.7 17.7C26 17.9 24.7 19 23.8 19C23.4 19 22.8 19 22.4 18.9C22.1 18.8 21.6 18.3 21.1 17.8Z" fill="#FFC107"/>
<path d="M20.9 17C21.1 17.2 21.4 17.4 21.7 17.5C21.9 17.6 22.2 17.7 22.2 17.7H23.1C23.6 17.7 24.3 17.5 25 17.1C25.7 16.8 25.8 16.6 26.3 16.4C26.8 16.1 27.3 15.8 27.1 15.7C26.9 15.6 26.7 15.7 26 16.1C25.4 16.5 24.9 16.7 24.3 17C24 17.1 23.6 17.3 23.3 17.3H22.4C22.1 17.3 21.9 17.2 21.6 17.1C21.4 17 21.3 16.9 21.2 16.9C21 16.8 20.6 16.4 20.4 16.3C20.4 16.3 20.2 16.3 20.3 16.4L20.9 17ZM23.9 14.8C24 15 24.2 15 24.3 15.1C24.4 15.2 24.5 15.2 24.5 15.2C24.6 15.1 24.5 14.9 24.4 14.9C24.4 14.7 23.9 14.7 23.9 14.8ZM22.3 15C22.3 15.1 22.5 15.2 22.5 15.1C22.6 15 22.7 14.9 22.8 14.9C23 14.8 22.9 14.7 22.6 14.7C22.4 14.8 22.4 14.9 22.3 15Z" fill="#634703"/>
<path d="M32 32.7V33C32.2 33.4 32.7 33.5 33.1 33.5C33.7 33.5 34.3 33.1 34.6 32.7C34.6 32.6 34.7 32.5 34.8 32.4C35 32.1 35.1 31.9 35.2 31.8C35.2 31.8 35.1 31.7 35.1 31.6C35 31.4 34.7 31.2 34.3 31.1C34 31 33.5 30.9 33.3 30.9C32.4 30.8 31.9 31.1 31.6 31.4C31.6 31.4 31.7 31.4 31.7 31.5C31.9 31.7 32 31.9 32 32.2C32.1 32.4 32 32.5 32 32.7Z" fill="#455A64"/>
</svg>
