<svg width="48" height="48" viewBox="0 0 48 48" fill="none" xmlns="http://www.w3.org/2000/svg">
<g clip-path="url(#clip0_60_29)">
<path d="M36.75 0H11.25C5.0368 0 0 5.0368 0 11.25V36.75C0 42.9632 5.0368 48 11.25 48H36.75C42.9632 48 48 42.9632 48 36.75V11.25C48 5.0368 42.9632 0 36.75 0Z" fill="#023430"/>
<path d="M32.0949 20.1733C30.1192 11.4581 26.0017 9.138 24.9514 7.49794C24.518 6.77555 24.1343 6.0245 23.8029 5.25C23.7474 6.02438 23.6454 6.51187 22.9873 7.09912C21.666 8.27719 16.0541 12.8503 15.5818 22.7527C15.1417 31.9856 22.3693 37.6787 23.324 38.2672C24.0583 38.6286 24.9525 38.2749 25.3888 37.9432C28.8727 35.5522 33.633 29.1776 32.0987 20.1733" fill="#10AA50"/>
<path d="M24.1022 33.3508C23.9203 35.6361 23.79 36.964 23.328 38.2699C23.328 38.2699 23.6312 40.4455 23.8442 42.75H24.5978C24.7777 41.1272 25.0522 39.5162 25.4198 37.9253C24.4442 37.4453 24.1397 35.3561 24.1022 33.3508Z" fill="#B8C4C2"/>
<path d="M25.4185 37.9266C24.4326 37.4712 24.1474 35.338 24.1035 33.3509C24.3472 30.0728 24.4183 26.7842 24.3165 23.4987C24.2648 21.7748 24.3409 7.53154 23.8918 5.44617C24.1989 6.15256 24.5528 6.83759 24.9514 7.49667C26.0018 9.13804 30.1206 11.4582 32.095 20.1734C33.633 29.1623 28.8987 35.52 25.4185 37.9266Z" fill="#12924F"/>
</g>
<defs>
<clipPath id="clip0_60_29">
<rect width="48" height="48" fill="white"/>
</clipPath>
</defs>
</svg>
