<svg width="48" height="48" viewBox="0 0 48 48" fill="none" xmlns="http://www.w3.org/2000/svg">
<path d="M23.697 37.56H24.877C25.717 37.56 26.508 37.168 27.016 36.499L34.501 26.652L41.986 36.499C42.494 37.167 43.285 37.56 44.125 37.56H45.305L35.756 25L44.877 13H43.697C42.857 13 42.066 13.392 41.558 14.061L34.5 23.347L27.441 14.06C26.933 13.392 26.142 13 25.302 13H24.122L33.243 25L23.697 37.56Z" fill="#818181"/>
<path d="M24 26V23C24 16.325 18.055 11.039 11.171 12.148C5.812 13.011 2 17.857 2 23.284V24V26V26.142C2 32.695 6.777 37.928 12.868 38C17.96 38.06 22.257 34.656 23.575 30.001H22.547C21.927 30.001 21.365 30.356 21.096 30.914C19.357 34.509 15.307 36.776 10.868 35.756C6.776 34.815 4 30.981 4 26.783V26H24ZM4 23.71C4 19.002 6.804 15.153 10.924 14.232C16.798 12.92 22 17.352 22 23V24H4V23.71Z" fill="#818181"/>
</svg>
