<svg width="731" height="166" viewBox="0 0 731 166" fill="none" xmlns="http://www.w3.org/2000/svg">
<g clip-path="url(#clip0_16_123)">
<path d="M119.274 151.537C114.448 142.901 110.559 135.631 110.632 135.381C110.704 135.131 118.812 120.607 128.649 103.105L146.534 71.2839H164.848C174.92 71.2839 183.161 71.4209 183.161 71.5884C183.161 71.7559 171.131 93.3456 156.427 119.566C139.525 149.707 129.391 167.239 128.871 167.238C128.363 167.238 124.688 161.224 119.274 151.536V151.537ZM96.1057 110.127C92.5443 104.239 74.5309 71.6994 74.7254 71.5049C74.8539 71.3765 85.066 71.3359 97.4192 71.4146L119.88 71.5579L111.858 85.8154C107.446 93.657 102.345 102.746 100.523 106.014L97.2112 111.955L96.1057 110.127Z" fill="#43BBF4"/>
<path d="M46.4492 83.4121C20.9021 37.9254 0 0.549226 0 0.353872C0 0.158517 41.8282 -0.000499725 92.9516 -0.000499725C144.075 -0.000499725 185.903 0.158551 185.903 0.352955C185.903 0.547359 176.984 16.5871 166.082 35.9966L146.262 71.2864H133.394C123.325 71.2864 120.584 71.1373 120.79 70.6009C120.935 70.2239 126.984 59.3663 134.231 46.4729L147.41 23.0304H38.4437L40.5547 26.7318C41.7157 28.7676 53.8154 50.2978 67.4436 74.5766C81.0711 98.8554 92.4235 118.931 92.6712 119.188C92.9187 119.445 93.9471 118.152 94.9565 116.315C95.9659 114.478 96.9245 112.972 97.087 112.968C97.4892 112.959 109.848 135.031 109.827 135.719C109.814 136.118 93.651 165.196 92.9963 165.997C92.9433 166.062 71.9974 128.898 46.4503 83.4116L46.4492 83.4121ZM487.181 145.541C486.007 144.758 484.676 143.678 484.223 143.14C483.771 142.603 482.69 141.996 481.822 141.792C480.954 141.588 479.535 140.713 478.669 139.847C477.312 138.49 477.094 137.849 477.094 135.222C477.094 132.669 477.34 131.899 478.602 130.49C482.54 126.095 490.628 128.013 491.674 133.59C492.315 137.007 490.604 140.382 487.651 141.522C485.883 142.205 486.114 142.88 488.629 144.38C490.435 145.457 490.701 145.815 490.079 146.332C489.484 146.825 488.846 146.651 487.181 145.541V145.541ZM488.287 138.694C490.901 135.588 489.798 131.168 486.106 129.95C481.649 128.479 477.821 132.373 479.305 136.87C480.106 139.297 481.732 140.381 484.571 140.381C486.462 140.381 487.118 140.083 488.287 138.694V138.694ZM509.564 141.997C506.061 141.239 505.611 140.328 505.611 133.99C505.611 129.313 505.755 128.317 506.433 128.317C507.106 128.317 507.256 129.257 507.256 133.487C507.256 138.466 507.311 138.7 508.755 139.836C509.853 140.699 510.698 140.928 511.908 140.691C514.478 140.186 514.933 139.094 514.933 133.422C514.933 128.682 515.012 128.317 516.03 128.317C517.039 128.317 517.127 128.682 517.127 132.896C517.127 139.784 516.513 140.935 512.191 142.156C511.739 142.284 510.556 142.212 509.564 141.998V141.997ZM209.776 141.287C208.411 140.289 209.148 139.067 210.634 139.863C211.232 140.183 212.636 140.368 213.754 140.276C215.504 140.13 215.811 139.901 215.958 138.627C216.104 137.365 215.782 136.973 213.765 135.958C210.45 134.292 209.481 133.307 209.481 131.607C209.481 130.796 209.913 129.746 210.441 129.275C212.371 127.552 219.151 128.069 218.047 129.855C217.813 130.234 217.063 130.244 215.764 129.886C213.524 129.267 211.917 129.635 211.441 130.875C210.984 132.066 211.962 133.102 214.999 134.64C218.488 136.408 219.304 138.784 217.158 140.929C215.852 142.235 211.37 142.452 209.776 141.287L209.776 141.287ZM234.088 141.135C229.707 138.318 229.831 131.383 234.305 129.06C238.045 127.118 243.196 128.405 244.904 131.707C246.249 134.309 245.671 137.895 243.567 139.999C242.152 141.414 241.389 141.708 238.709 141.869C236.402 142.008 235.134 141.807 234.089 141.134L234.088 141.135ZM242.061 138.694C245.958 134.063 241.36 127.606 235.989 130.168C230.727 132.677 232.468 140.381 238.297 140.381C240.242 140.381 240.883 140.093 242.061 138.694V138.694ZM259.932 135.171V128.317H264.045C267.336 128.317 268.158 128.481 268.158 129.139C268.158 129.779 267.427 129.962 264.868 129.962H261.578V134.349H264.32C266.391 134.349 267.062 134.55 267.062 135.171C267.062 135.793 266.391 135.994 264.32 135.994H261.578V139.01C261.578 141.325 261.387 142.026 260.755 142.026C260.068 142.026 259.932 140.899 259.932 135.171V135.171ZM283.513 135.994V129.962H281.045C279.217 129.962 278.578 129.749 278.578 129.139C278.578 128.458 279.613 128.317 284.61 128.317C289.606 128.317 290.642 128.458 290.642 129.139C290.642 129.749 290.002 129.962 288.174 129.962H285.707V135.994C285.707 141.66 285.64 142.026 284.61 142.026C283.58 142.026 283.513 141.66 283.513 135.994V135.994ZM305.743 140.244C305.333 139.264 304 136.163 302.781 133.354C300.718 128.601 300.644 128.259 301.708 128.419C302.591 128.552 303.302 129.745 304.835 133.662C305.926 136.451 306.943 138.733 307.094 138.732C307.617 138.732 309.399 133.786 309.119 133.11C308.965 132.736 308.443 131.504 307.959 130.373C307.175 128.541 307.171 128.317 307.921 128.317C308.384 128.317 309.043 128.934 309.387 129.688C309.731 130.442 310.192 131.059 310.413 131.059C310.633 131.059 310.968 130.442 311.158 129.688C311.347 128.934 311.884 128.317 312.351 128.317C313.264 128.317 313.077 129.511 311.751 132.155C311.162 133.331 311.24 133.918 312.299 136.268L313.535 139.01L314.664 136.447C315.285 135.037 316.238 132.631 316.782 131.1C317.46 129.191 318.072 128.317 318.731 128.317C319.634 128.317 319.63 128.472 318.652 130.951C315.882 137.979 314.024 142.026 313.568 142.026C313.292 142.026 312.414 140.607 311.618 138.873L310.171 135.719L308.822 138.873C308.08 140.607 307.252 142.026 306.981 142.026C306.711 142.026 306.154 141.224 305.744 140.243L305.743 140.244ZM331.287 139.147C331.917 137.564 333.186 134.356 334.107 132.018C335.273 129.058 336.062 127.768 336.706 127.768C337.351 127.768 338.14 129.058 339.306 132.018C340.227 134.356 341.495 137.564 342.125 139.147C343.239 141.945 343.241 142.026 342.225 142.026C341.515 142.026 340.975 141.408 340.545 140.107C339.917 138.204 339.883 138.187 336.706 138.187C333.529 138.187 333.495 138.204 332.868 140.107C332.438 141.408 331.897 142.026 331.188 142.026C330.171 142.026 330.174 141.945 331.287 139.147H331.287ZM338.902 136.131C338.908 135.316 337.03 130.51 336.706 130.51C336.382 130.51 334.505 135.316 334.51 136.131C334.512 136.357 335.5 136.542 336.706 136.542C337.913 136.542 338.901 136.357 338.902 136.131ZM356.448 135.11V128.193L360.347 128.413C363.379 128.585 364.415 128.865 365.008 129.677C366.235 131.354 365.942 133.694 364.319 135.199L362.866 136.545L364.57 139.285C366.124 141.784 366.18 142.026 365.205 142.026C364.519 142.026 363.421 140.949 362.134 139.01C360.902 137.155 359.74 135.994 359.113 135.994C358.243 135.994 358.093 136.436 358.093 139.01C358.093 141.325 357.902 142.026 357.271 142.026C356.583 142.026 356.448 140.892 356.448 135.11L356.448 135.11ZM362.517 134.33C363.702 133.695 363.927 131.627 362.919 130.62C362.557 130.258 361.323 129.962 360.177 129.962H358.093V132.43C358.093 134.818 358.148 134.897 359.775 134.897C360.699 134.897 361.933 134.642 362.517 134.33L362.517 134.33ZM379.481 135.171V128.317H383.594C386.884 128.317 387.706 128.481 387.706 129.139C387.706 129.771 387.006 129.962 384.69 129.962H381.674V134.349H384.142C385.499 134.349 386.61 134.596 386.61 134.897C386.61 135.199 385.499 135.446 384.142 135.446H381.674V140.381H384.964C387.524 140.381 388.255 140.564 388.255 141.203C388.255 141.866 387.402 142.026 383.868 142.026H379.481V135.171ZM420.061 138.821C420.061 136.013 419.79 135.195 417.868 132.222C416.661 130.355 415.674 128.713 415.674 128.573C415.674 128.432 416.131 128.317 416.689 128.317C417.318 128.317 418.372 129.392 419.461 131.144L421.218 133.97L423.122 131.144C424.379 129.278 425.408 128.317 426.15 128.317C427.143 128.317 426.981 128.738 424.765 131.908C422.467 135.195 422.255 135.774 422.255 138.762C422.255 141.66 422.132 142.026 421.158 142.026C420.186 142.026 420.061 141.66 420.061 138.821V138.821ZM456.255 135.171V128.317H460.368C463.658 128.317 464.481 128.481 464.481 129.139C464.481 129.78 463.746 129.962 461.157 129.962H457.834L458.004 132.018C458.173 134.055 458.199 134.076 460.779 134.242C462.212 134.334 463.384 134.629 463.384 134.897C463.384 135.166 462.212 135.461 460.779 135.553L458.174 135.72L457.837 140.381H461.159C463.746 140.381 464.481 140.563 464.481 141.203C464.481 141.861 463.658 142.026 460.368 142.026H456.255V135.171ZM531.932 135.171C531.932 128.682 531.991 128.317 533.029 128.317C534.067 128.317 534.126 128.682 534.126 135.171C534.126 141.66 534.067 142.026 533.029 142.026C531.991 142.026 531.932 141.66 531.932 135.171ZM549.481 135.171V128.317H553.07C556.15 128.317 556.851 128.508 558.006 129.663C560.905 132.563 558.685 136.542 554.167 136.542H551.674V139.284C551.674 141.66 551.528 142.026 550.577 142.026C549.539 142.026 549.481 141.66 549.481 135.171V135.171ZM556.5 134.239C557.453 133.286 557.315 130.688 556.291 130.295C555.813 130.112 554.58 129.962 553.549 129.962C551.693 129.962 551.674 129.986 551.674 132.43V134.897H553.758C554.904 134.897 556.138 134.601 556.5 134.239L556.5 134.239ZM570.304 141.615C570.295 141.388 571.468 138.173 572.909 134.47C576.34 125.651 576.668 125.67 580.261 134.897C581.728 138.667 582.93 141.813 582.931 141.889C582.931 141.964 582.549 142.026 582.082 142.026C581.614 142.026 580.87 141.162 580.429 140.107C579.644 138.227 579.562 138.187 576.454 138.187C573.326 138.187 573.272 138.214 572.588 140.107C572.206 141.162 571.539 142.026 571.106 142.026C570.674 142.026 570.312 141.841 570.304 141.615L570.304 141.615ZM577.943 133.663C577.319 132.08 576.709 130.685 576.587 130.563C576.364 130.339 575.154 133.039 574.461 135.308C574.108 136.463 574.246 136.542 576.581 136.542H579.078L577.943 133.663ZM596.094 135.171C596.094 128.318 596.094 128.317 597.399 128.317C598.52 128.317 599.005 129.017 600.847 133.302C602.026 136.044 603.219 138.288 603.499 138.289C603.778 138.289 604.983 136.046 606.175 133.303C608.018 129.067 608.537 128.317 609.622 128.317C610.892 128.317 610.9 128.359 610.9 135.171C610.9 140.899 610.765 142.026 610.077 142.026C609.403 142.026 609.255 141.069 609.255 136.707C609.255 133.542 609.055 131.599 608.762 131.909C608.491 132.195 607.336 134.598 606.194 137.248C604.786 140.517 603.858 142.017 603.312 141.91C602.869 141.823 601.666 139.778 600.638 137.365C599.611 134.952 598.538 132.744 598.254 132.457C597.932 132.131 597.739 133.828 597.739 136.981C597.739 141.1 597.588 142.026 596.916 142.026C596.229 142.026 596.094 140.899 596.094 135.171H596.094ZM626.803 135.171C626.803 129.444 626.939 128.317 627.626 128.317C628.313 128.317 628.448 129.444 628.448 135.171C628.448 140.899 628.313 142.026 627.626 142.026C626.939 142.026 626.803 140.899 626.803 135.171ZM644.352 135.171V128.317H648.465C651.755 128.317 652.577 128.481 652.577 129.139C652.577 129.78 651.843 129.962 649.254 129.962H645.931L646.101 132.018C646.269 134.055 646.296 134.076 648.876 134.242C650.308 134.334 651.481 134.629 651.481 134.897C651.481 135.166 650.308 135.461 648.876 135.553L646.271 135.72L645.934 140.381H649.256C651.843 140.381 652.577 140.563 652.577 141.203C652.577 141.861 651.755 142.026 648.465 142.026H644.352V135.171ZM666.836 135.171C666.836 126.417 667.233 126.315 672.881 133.62L676.981 138.923L677.138 133.62C677.263 129.401 677.459 128.317 678.097 128.317C678.759 128.317 678.9 129.519 678.9 135.171C678.9 143.969 678.512 144.051 672.724 136.467L668.481 130.908V136.467C668.481 141.043 668.335 142.026 667.658 142.026C666.971 142.026 666.836 140.899 666.836 135.171ZM696.448 135.994V129.962H693.981C692.153 129.962 691.513 129.749 691.513 129.139C691.513 128.458 692.549 128.317 697.545 128.317C702.542 128.317 703.577 128.458 703.577 129.139C703.577 129.749 702.938 129.962 701.11 129.962H698.642V135.994C698.642 141.66 698.576 142.026 697.545 142.026C696.515 142.026 696.448 141.66 696.448 135.994ZM717.484 140.937C715.255 139.467 714.331 137.174 714.689 134.001C715.283 128.729 720.721 126.471 726.189 129.226C729.802 131.045 730.373 136.871 727.244 139.999C725.831 141.412 725.062 141.709 722.386 141.875C719.864 142.032 718.85 141.837 717.484 140.937L717.484 140.937ZM725.738 138.694C728.189 135.781 727.539 131.851 724.333 130.193C719.978 127.941 715.204 132.167 716.764 136.894C717.558 139.298 719.191 140.381 722.022 140.381C723.914 140.381 724.569 140.083 725.738 138.694ZM454.398 108.514C451.826 107.91 445.816 104.781 445.464 103.862C445.325 103.5 445.857 101.928 446.647 100.369L448.083 97.5356L449.837 98.7083C452.929 100.775 456.997 102.436 459.88 102.81C469.084 104.004 474.42 96.5365 468.415 90.8672C467.608 90.1049 463.902 87.8679 460.181 85.8961C451.919 81.5177 450.103 80.1679 448.269 77.0392C446.612 74.2108 446.336 69.3509 447.659 66.2655C449.61 61.7145 455.01 58.6987 461.988 58.2634C467.084 57.9455 470.997 58.6407 475.51 60.6659L478.651 62.0752L477.562 64.6245C476.964 66.0266 476.301 67.3504 476.089 67.5664C475.877 67.7823 474.459 67.3635 472.938 66.6356C466.49 63.5496 458.052 63.8448 455.091 67.26C453.058 69.6037 453.651 73.313 456.404 75.4783C457.163 76.0755 460.811 78.1527 464.511 80.0944C475.617 85.9239 478.668 89.6197 478.045 96.4913C477.29 104.816 471.141 109.218 460.476 109.069C458.305 109.038 455.57 108.789 454.399 108.514L454.398 108.514ZM540.829 108.274C528.153 104.861 520.691 93.0549 522.612 79.4512C523.743 71.4506 528.298 64.8022 535.063 61.2807C542.987 57.155 552.741 57.0062 560.761 60.8886C564.18 62.5433 569.229 67.3277 571.01 70.5989C574.09 76.2565 575 84.2437 573.309 90.7752C571.052 99.4994 563.507 106.623 554.524 108.512C550.617 109.334 544.365 109.225 540.83 108.273L540.829 108.274ZM555.617 101.348C558.784 99.9859 563.328 95.3038 564.946 91.7356C565.905 89.621 566.144 88.0389 566.167 83.6249C566.193 78.8076 566.021 77.7649 564.748 75.0438C562.899 71.092 559.527 67.7254 555.59 65.899C551.37 63.9416 545.088 63.8841 540.835 65.7641C536.98 67.4675 532.373 72.438 531.039 76.3329C529.486 80.8643 529.685 87.7286 531.484 91.6417C533.065 95.0824 536.064 98.6684 538.745 100.326C543.368 103.183 550.366 103.607 555.618 101.348L555.617 101.348ZM210.022 83.6249V59.2228H220.616C233.343 59.2228 235.808 59.7544 239.306 63.2528C244.405 68.3512 244.496 78.5196 239.495 84.202C235.669 88.5477 234.008 89.1088 224.965 89.1088H217.15L217.15 98.5681L217.151 108.027H210.022L210.022 83.6249ZM230.877 82.1169C234.349 80.3626 235.796 77.9527 235.796 73.9203C235.796 67.1976 233.658 65.6622 223.868 65.3537L217.15 65.142V73.6876C217.15 82.1046 217.169 82.2372 218.384 82.5017C223.83 83.6855 228.028 83.5563 230.876 82.1173L230.877 82.1169ZM290.086 83.6249V59.2228H300.68C312.647 59.2228 315.691 59.7895 318.912 62.6179C322.363 65.6473 323.822 70.2829 322.972 75.5105C322.063 81.092 318.8 85.4967 314.652 86.7399C313.104 87.2036 312.612 87.6046 312.845 88.2114C313.021 88.6702 315.746 93.1624 318.9 98.1942C322.054 103.226 324.635 107.497 324.635 107.685C324.635 107.874 322.821 108.028 320.604 108.028H316.573L304.619 88.3114L297.215 88.2862V108.027H290.086L290.086 83.6249ZM310.815 80.9352C313.843 79.36 314.972 77.5402 315.198 73.8738C315.376 70.9823 315.211 70.1738 314.11 68.5529C312.151 65.67 310.887 65.2719 303.659 65.2628L297.215 65.2547V81.7056H303.275C307.411 81.7056 309.804 81.4611 310.815 80.9352L310.815 80.9352ZM380.01 97.1968L379.997 86.3666L363.557 59.4968L367.527 59.3331C372.189 59.141 371.11 58.1025 377.944 69.3673C380.689 73.8913 383.223 77.9108 383.575 78.2997C384.08 78.8558 385.488 76.943 390.183 69.3288C393.465 64.0059 396.432 59.5422 396.777 59.4103C397.122 59.2778 399.028 59.2433 401.013 59.3335L404.621 59.4976L387.166 85.819L387.151 108.028H380.022L380.009 97.1976L380.01 97.1968ZM622.954 83.6248V59.2226H652.018V65.2546H630.631V80.6088H648.179V86.6408H630.631V108.027H622.954V83.6248ZM707.405 86.6408V65.2546H690.405V59.2226H730.986V65.2546H714.534V108.027H707.405V86.6408Z" fill="white"/>
</g>
<defs>
<clipPath id="clip0_16_123">
<rect width="731" height="166" fill="white"/>
</clipPath>
</defs>
</svg>
